<?xml version="1.0" encoding="UTF-8"?>
<svg version="1.1" xmlns="http://www.w3.org/2000/svg" width="1024" height="1024">
<path d="M0 0 C1.21601395 -0.00807175 2.43202789 -0.01614349 3.68489075 -0.02445984 C6.24230553 -0.03822566 8.79973811 -0.04898098 11.35717773 -0.05688477 C13.97083931 -0.0684648 16.58447616 -0.08900994 19.19799805 -0.1184082 C22.98632779 -0.16096836 26.77396129 -0.17723151 30.5625 -0.1875 C31.72823044 -0.20500809 32.89396088 -0.22251617 34.09501648 -0.24055481 C40.37829532 -0.22371608 44.37144801 -0.10704155 49.08203125 4.23828125 C51.44563549 7.78368761 51.33488947 9.26210634 51.34209347 13.46558952 C51.34915906 14.77823591 51.35622465 16.0908823 51.36350435 17.44330585 C51.36125277 18.90880861 51.35880624 20.37431108 51.35618591 21.83981323 C51.36063583 23.38976651 51.36594905 24.93971751 51.37205464 26.48966515 C51.38627462 30.76024322 51.38789718 35.03074866 51.38745773 39.30134702 C51.38910241 43.90267531 51.4021623 48.50397336 51.41365051 53.10528564 C51.436526 63.17123795 51.44442372 73.23716921 51.44947696 83.30314398 C51.45273074 89.58498417 51.45925124 95.86681822 51.46647835 102.14865494 C51.48604688 119.53195181 51.50244984 136.91524296 51.50535488 154.29855156 C51.50554245 155.41151022 51.50573002 156.52446888 51.50592327 157.67115355 C51.50628953 159.92751193 51.50665323 162.18387031 51.50701439 164.44022869 C51.5071972 165.5603292 51.50738001 166.68042971 51.50756836 167.83447266 C51.50783918 169.5166673 51.50783918 169.5166673 51.50811548 171.23284568 C51.51165872 189.41320265 51.53868936 207.59344129 51.57606625 225.7737572 C51.61410945 244.42699738 51.63351206 263.08017878 51.63381439 281.73345864 C51.63439983 292.21158482 51.64294743 302.68956982 51.67181206 313.16765976 C51.69627258 322.0882144 51.70364494 331.00857638 51.68856453 339.92915545 C51.68137395 344.4827359 51.68234505 349.03593549 51.70497513 353.58947372 C51.72548281 357.75576229 51.72304251 361.92137522 51.70210028 366.0876558 C51.69858956 367.59707136 51.70358204 369.10653487 51.71780472 370.61588751 C51.7358612 372.66361502 51.72024226 374.71155737 51.70285702 376.7592907 C51.70367147 377.89796463 51.70448593 379.03663856 51.70532507 380.20981777 C50.88371121 384.20187977 49.18568904 385.68427762 46.08203125 388.23828125 C32.5955839 394.10195401 12.09783514 393.27905165 -1.5625 388.5703125 C-2.66980469 388.13074219 -3.77710938 387.69117188 -4.91796875 387.23828125 C-5.58876465 386.98095215 -6.25956055 386.72362305 -6.95068359 386.45849609 C-14.08705622 383.71299506 -21.03847201 380.77000368 -27.79296875 377.17578125 C-53.07111266 364.18852549 -85.73857423 362.12796704 -112.89453125 369.8828125 C-128.90109609 375.04506854 -143.37036761 383.56772313 -157.35546875 392.73828125 C-170.64922924 401.41602851 -183.59646822 407.89842135 -198.91796875 412.23828125 C-200.69880859 412.75068359 -200.69880859 412.75068359 -202.515625 413.2734375 C-235.55602424 421.28210248 -268.96772747 410.92706203 -297.20361328 393.85644531 C-299.44583217 392.46935527 -301.68277285 391.07415624 -303.91796875 389.67578125 C-315.68209119 382.34300477 -327.98518114 376.36621213 -341.10546875 371.86328125 C-342.08193359 371.5233313 -342.08193359 371.5233313 -343.078125 371.17651367 C-356.34793079 366.88609373 -369.6841386 365.652579 -383.54296875 365.73828125 C-384.32688995 365.74037598 -385.11081116 365.7424707 -385.91848755 365.74462891 C-408.25769451 365.86713652 -430.60668271 370.70168279 -450.00366211 382.25415039 C-454.10795805 384.36413852 -458.58202859 385.57535715 -462.98046875 386.92578125 C-464.43163086 387.38694336 -464.43163086 387.38694336 -465.91210938 387.85742188 C-473.7233923 390.3007869 -480.81407034 391.43468717 -488.98046875 391.48828125 C-490.16479492 391.51921875 -490.16479492 391.51921875 -491.37304688 391.55078125 C-496.01393153 391.58190202 -499.27092504 391.42358915 -502.91796875 388.23828125 C-505.81055657 383.54242769 -506.35511107 379.53758051 -506.32202148 374.14086914 C-506.32888474 373.35144424 -506.33574799 372.56201935 -506.34281921 371.74867249 C-506.36104297 369.15257517 -506.35725613 366.55708474 -506.3515625 363.9609375 C-506.35612646 362.14782008 -506.36143267 360.33470438 -506.3674469 358.52159119 C-506.37636933 354.72631796 -506.37396481 350.93125526 -506.36401367 347.13598633 C-506.3525256 342.28263145 -506.37273728 337.43000433 -506.40193081 332.57674503 C-506.42031458 328.83368853 -506.41999601 325.09080572 -506.41429329 321.34771538 C-506.41414034 319.55882178 -506.42016296 317.76991622 -506.43258476 315.98106575 C-506.44753434 313.4752811 -506.43678957 310.97083198 -506.41967773 308.46508789 C-506.4293457 307.73292053 -506.43901367 307.00075317 -506.44897461 306.24639893 C-506.36107816 300.07109954 -504.41571803 295.82011385 -500.11938477 291.37915039 C-497.07722653 289.80257221 -494.05099593 289.39571732 -490.6953125 288.984375 C-489.9507077 288.88260452 -489.20610291 288.78083405 -488.43893433 288.67597961 C-486.79067507 288.45176995 -485.14167864 288.23293247 -483.49209595 288.01867676 C-478.83117514 287.41252022 -474.17583154 286.76552031 -469.51953125 286.125 C-468.48353287 285.98357574 -467.44753448 285.84215149 -466.38014221 285.69644165 C-457.16106462 284.43040295 -447.95669388 283.07376967 -438.75390625 281.6953125 C-438.01290995 281.58433668 -437.27191364 281.47336086 -436.50846291 281.35902214 C-431.24883149 280.57076808 -425.98961853 279.77974125 -420.73046875 278.98828125 C-415.68207985 278.22877259 -410.63354569 277.47024807 -405.58472061 276.71364403 C-403.64282272 276.4222108 -401.70115172 276.12926692 -399.75949097 275.83625793 C-389.65115331 274.32012123 -389.65115331 274.32012123 -384.85946655 273.73132324 C-384.18657687 273.64726856 -383.51368719 273.56321388 -382.82040691 273.47661209 C-380.94870622 273.24551922 -379.07596431 273.02290489 -377.20317078 272.80084229 C-367.38869499 271.12020237 -360.83292897 265.00139268 -353.91796875 258.23828125 C-352.95890625 257.31982422 -352.95890625 257.31982422 -351.98046875 256.3828125 C-349.0983209 253.57143167 -346.39467644 250.65972421 -343.78125 247.59765625 C-339.66069551 242.86801887 -335.2507453 238.46050548 -330.79296875 234.05078125 C-330.00792969 233.27025391 -329.22289062 232.48972656 -328.4140625 231.68554688 C-326.90103396 230.18144852 -325.38394667 228.68141901 -323.86230469 227.18603516 C-322.37352972 225.69464306 -320.94707102 224.14081435 -319.55078125 222.5625 C-309.9538864 214.09046374 -296.97024774 210.97180255 -285.04296875 207.11328125 C-283.1793742 206.50095269 -281.31609048 205.8876773 -279.453125 205.2734375 C-270.91014964 202.46506515 -262.35034208 199.72279125 -253.74804688 197.1015625 C-249.18653929 195.71012954 -244.64183061 194.27194149 -240.10546875 192.80078125 C-238.7915918 192.38989258 -238.7915918 192.38989258 -237.45117188 191.97070312 C-225.97996777 188.22692703 -220.93079715 183.75726334 -214.91796875 173.23828125 C-213.82212546 171.43039981 -212.72317416 169.62439857 -211.62109375 167.8203125 C-210.46853365 165.89804503 -209.31756224 163.97482434 -208.16796875 162.05078125 C-207.53890625 161.00212891 -206.90984375 159.95347656 -206.26171875 158.87304688 C-202.89531376 153.25258583 -199.54940179 147.62086169 -196.23236084 141.97111511 C-194.54498995 139.09747788 -192.85339404 136.2263351 -191.1619873 133.35507202 C-190.34230886 131.96032774 -189.52494824 130.56421831 -188.71008301 129.16665649 C-172.65441379 101.63062819 -155.66784456 94.00231787 -125.89599609 85.12988281 C-121.97336836 83.95547418 -118.06377042 82.74870251 -114.16796875 81.48828125 C-113.08 81.1428125 -111.99203125 80.79734375 -110.87109375 80.44140625 C-100.35526696 76.15718052 -95.27871059 67.58242263 -89.66796875 58.23828125 C-88.52116682 56.36358183 -87.37271737 54.48988929 -86.22265625 52.6171875 C-85.6615918 51.70211426 -85.10052734 50.78704102 -84.52246094 49.84423828 C-70.65655174 27.32374 -54.04783115 9.3683783 -27.54296875 2.36328125 C-18.44156105 0.24230424 -9.2979048 0.05922695 0 0 Z " fill="#D08C2C" transform="translate(738.91796875,248.76171875)"/>
<path d="M0 0 C19.48591765 12.33899986 39.54069238 21.49642633 62.1875 26.0625 C63.14011719 26.28808594 64.09273437 26.51367188 65.07421875 26.74609375 C92.94322734 32.64537294 123.94502458 26.19907156 149.1875 14.0625 C150.76917969 13.31226563 150.76917969 13.31226563 152.3828125 12.546875 C161.27252378 8.04517977 169.20653699 2.26094791 177.31640625 -3.4921875 C198.72402882 -18.67236466 220.81427834 -28.77982876 247.58203125 -24.28125 C260.13360188 -21.77525408 271.91421986 -16.71139491 283.25 -10.875 C304.35913492 -0.14927739 326.12696497 3.72149343 349.625 3.6105957 C350.93855469 3.61663818 352.25210938 3.62268066 353.60546875 3.62890625 C354.77875732 3.61802979 355.9520459 3.60715332 357.16088867 3.59594727 C360.81693136 4.15952697 361.93283639 5.19774702 364.1875 8.0625 C365.44835125 10.5842025 365.34196016 12.3692058 365.38037109 15.19213867 C365.39643402 16.26473434 365.41249695 17.33733002 365.42904663 18.44242859 C365.47373281 23.40000762 365.51464949 28.35745131 365.53759766 33.31518555 C365.5540525 35.91521216 365.58120101 38.51519554 365.61962891 41.11499023 C366.03072139 69.08536535 366.03072139 69.08536535 360.1875 81.0625 C359.8265625 81.81378174 359.465625 82.56506348 359.09375 83.33911133 C349.62677117 101.11025715 333.17224436 113.16823398 314.1875 119.0625 C308.82222434 120.57404901 303.98561741 121.3532062 298.39622879 121.31697559 C297.27851388 121.32178531 297.27851388 121.32178531 296.13821888 121.32669219 C293.65141288 121.33496687 291.16484932 121.32907684 288.67803955 121.32319641 C286.87302325 121.32621826 285.06800824 121.33010791 283.26299548 121.33478898 C278.31032622 121.34507359 273.3577293 121.34288595 268.40505409 121.33860838 C263.06066735 121.33614198 257.71629808 121.34515432 252.37191772 121.35264587 C241.90404619 121.36539772 231.4362003 121.36718592 220.96832231 121.36484561 C212.45888708 121.36306267 203.94945963 121.36481159 195.44002533 121.36907005 C194.2289657 121.36966524 193.01790607 121.37026043 191.77014767 121.37087366 C189.30986271 121.37208541 186.84957776 121.37329954 184.38929281 121.37451603 C161.31394436 121.38539365 138.23861053 121.38322815 115.16326126 121.37713119 C94.05864933 121.37196305 72.95408358 121.38321436 51.84948078 121.40222941 C30.17552735 121.42160758 8.50159577 121.42986376 -13.17236638 121.42610615 C-25.33907544 121.42419393 -37.50574521 121.42668372 -49.6724472 121.44082069 C-60.03130487 121.45273526 -70.39009907 121.45413857 -80.7489576 121.44203053 C-86.0324363 121.43614213 -91.31579891 121.43504138 -96.59926987 121.44703293 C-101.44035926 121.45789255 -106.28123565 121.4547873 -111.12231508 121.44077124 C-112.86924953 121.43812453 -114.61620068 121.44049003 -116.36311874 121.44850711 C-129.10180864 121.50288871 -140.5522679 120.32105133 -152 114.3125 C-153.01670776 113.79187988 -153.01670776 113.79187988 -154.05395508 113.26074219 C-159.46073359 110.41595483 -164.19347865 107.06247725 -168.8125 103.0625 C-169.62460938 102.44890625 -170.43671875 101.8353125 -171.2734375 101.203125 C-183.10068458 91.23184592 -190.67276082 75.17095711 -192.10995483 59.90237427 C-192.23707793 56.61012995 -192.28066036 53.32983972 -192.28125 50.03515625 C-192.28886353 48.84321152 -192.29647705 47.65126678 -192.30432129 46.42320251 C-192.31504758 43.92660606 -192.31800616 41.429965 -192.31347656 38.93334961 C-192.31249626 35.110418 -192.35437241 31.28944369 -192.3984375 27.46679688 C-192.40363941 25.03125416 -192.40633278 22.59570452 -192.40625 20.16015625 C-192.42264526 19.02054947 -192.43904053 17.88094269 -192.45593262 16.70680237 C-192.38731559 8.87551246 -192.38731559 8.87551246 -189.53540039 4.84179688 C-186.88794388 3.11179929 -185.74426022 2.4520535 -182.65234375 2.49609375 C-181.47671875 2.48388794 -181.47671875 2.48388794 -180.27734375 2.47143555 C-179.02630859 2.48557495 -179.02630859 2.48557495 -177.75 2.5 C-170.43337935 2.35768741 -163.4866953 1.7141074 -156.3125 0.25 C-155.53769287 0.096521 -154.76288574 -0.05695801 -153.96459961 -0.21508789 C-143.12675431 -2.52479263 -133.20115677 -6.51758865 -123.25 -11.3125 C-112.98405462 -16.13255007 -102.76856398 -20.02131973 -91.8125 -22.9375 C-90.8740625 -23.20175781 -89.935625 -23.46601562 -88.96875 -23.73828125 C-56.2121412 -31.3573026 -26.78522001 -17.04272011 0 0 Z " fill="#0086CC" transform="translate(424.8125,767.9375)"/>
<path d="M0 0 C1.2375 0.42410156 2.475 0.84820313 3.75 1.28515625 C16.36989683 5.88151421 28.13440546 12.57698661 39.5625 19.5625 C73.64333032 40.36660855 114.01035126 51.88047205 153.82958984 42.53466797 C154.5458252 42.35822754 155.26206055 42.18178711 156 42 C156.77682129 41.81195801 157.55364258 41.62391602 158.35400391 41.43017578 C178.40196938 36.40118105 195.46269178 27.39133243 212.45092773 15.77099609 C236.50590942 -0.67413548 260.62190672 -7.94463409 289.875 -3 C300.41333677 -0.48125435 310.2578045 4.35644741 320.0625 8.8671875 C327.31074998 12.17431509 334.56159946 14.9839038 342.1875 17.3125 C342.9705249 17.55500488 343.7535498 17.79750977 344.56030273 18.04736328 C357.26760146 21.77125842 369.95251618 22.34988355 383.09228516 22.30541992 C385.12486221 22.30280001 387.15522118 22.33084223 389.1875 22.36328125 C390.37730469 22.36626221 391.56710937 22.36924316 392.79296875 22.37231445 C397.13235738 23.22162689 398.50308728 24.34740796 401 28 C401.71499755 31.39206298 401.70117213 34.69933113 401.6640625 38.15625 C401.66884613 39.13613892 401.67362976 40.11602783 401.67855835 41.12561035 C401.68195441 43.19329436 401.67277263 45.26103228 401.65185547 47.32861328 C401.62508615 50.48982702 401.65161371 53.64749018 401.68359375 56.80859375 C401.6802896 58.82032032 401.67388326 60.83204469 401.6640625 62.84375 C401.67418365 63.78657837 401.68430481 64.72940674 401.69473267 65.70080566 C401.6145152 70.20221008 401.48130654 72.34976838 398.73925781 76.05419922 C387.92997825 83.7324486 367.16503223 81.1349945 354.66796875 79.55859375 C344.24965962 77.40269229 334.77186295 72.35104879 325.22851562 67.79467773 C310.41566347 60.72933217 294.56708134 54.82592488 278 54 C276.72898437 53.93554688 275.45796875 53.87109375 274.1484375 53.8046875 C244.17782166 52.79905243 220.22408189 64.68720762 196 81 C179.37424219 92.19598821 162.3168667 103.28402997 142 106 C141.29875 106.10957031 140.5975 106.21914063 139.875 106.33203125 C106.31505849 110.7018153 78.03037407 100.152144 50.17626953 82.38574219 C15.26690635 60.15716406 -21.55022609 48.04550919 -63 57 C-76.88966354 60.20602388 -90.3904937 65.49572087 -103.0234375 72.078125 C-107.07628799 74.13187002 -111.19810513 75.45914995 -115.5625 76.6875 C-116.27857422 76.89955078 -116.99464844 77.11160156 -117.73242188 77.33007812 C-125.12779043 79.46322811 -132.38924771 80.23420638 -140.0625 80.375 C-141.22749023 80.43107422 -141.22749023 80.43107422 -142.41601562 80.48828125 C-146.58805572 80.55186865 -149.19443603 80.28188231 -152.49609375 77.6015625 C-155.56100055 74.41711955 -156.12071073 73.08854103 -156.19287109 68.82910156 C-156.21696548 67.53700775 -156.21696548 67.53700775 -156.24154663 66.21881104 C-156.28604546 62.2725097 -156.32707333 58.32637654 -156.35009766 54.37988281 C-156.36664315 52.30034178 -156.3939145 50.22085728 -156.43212891 48.14160156 C-156.4869893 45.14097637 -156.50878701 42.14168467 -156.5234375 39.140625 C-156.54610687 38.21542053 -156.56877625 37.29021606 -156.59213257 36.3369751 C-156.57814144 32.04639621 -156.42851312 28.91937687 -153.78637695 25.42138672 C-150.82709847 22.84974701 -149.72824278 22.23648869 -145.89453125 22.1171875 C-144.43370117 22.04274414 -144.43370117 22.04274414 -142.94335938 21.96679688 C-141.91017578 21.93650391 -140.87699219 21.90621094 -139.8125 21.875 C-137.63098202 21.74559899 -135.4499628 21.60751023 -133.26953125 21.4609375 C-132.19783691 21.3897168 -131.12614258 21.31849609 -130.02197266 21.24511719 C-114.85981339 20.01528944 -101.51864888 14.22288698 -87.70996094 8.18359375 C-60.60032746 -3.65672185 -28.79663639 -9.96090548 0 0 Z " fill="#0186CB" transform="translate(389,654)"/>
<path d="M0 0 C5.57894737 3.15789474 5.57894737 3.15789474 7 6 C7.09549355 7.586165 7.12781387 9.17634402 7.12841797 10.76538086 C7.13048752 12.24996544 7.13048752 12.24996544 7.13259888 13.76454163 C7.12751312 14.84126633 7.12242737 15.91799103 7.1171875 17.02734375 C7.11411591 18.14439194 7.11104431 19.26144012 7.10787964 20.41233826 C7.04797675 31.40682672 6.70909043 42.38482268 6.25537109 53.36938477 C6.12375537 56.59298407 6.00489665 59.81689873 5.88671875 63.04101562 C4.12417776 108.50936365 4.12417776 108.50936365 -12 125 C-23.18769457 134.10626302 -34.61800242 138.15642336 -49 137 C-62.24186229 133.96287562 -72.8158596 125.34857344 -80 114 C-86.02143263 101.67130724 -86.44535463 89.93773461 -82 77 C-74.24739876 58.71181246 -57.77869822 45.47077515 -43.01953125 32.76953125 C-40.30513807 30.3911558 -37.65427613 27.94491095 -35 25.5 C-31.09701489 21.90601882 -27.15674494 18.36615194 -23.14453125 14.89453125 C-19.75177286 11.89728568 -16.43579798 8.81575255 -13.12304688 5.73046875 C-6.14689035 -0.72316357 -6.14689035 -0.72316357 0 0 Z " fill="#017FC5" transform="translate(591,126)"/>
<path d="M0 0 C4.24520811 1.5035112 7.92325237 3.90900474 10 8.0625 C10.51561522 16.59807457 9.72274571 25.23994599 9.1953125 33.7578125 C9.11026957 35.15867194 9.02538316 36.55954089 8.94064331 37.9604187 C8.7629891 40.88358733 8.58279711 43.80658594 8.40087891 46.72949219 C8.21682173 49.69054235 8.03649105 52.65177868 7.85986328 55.61328125 C4.5954542 110.32896657 4.5954542 110.32896657 -12.3125 126.3125 C-21.68196727 134.3252301 -32.05338394 137.6457448 -44.30078125 137.4375 C-56.41562782 136.20938461 -66.195438 129.93103824 -73.8125 120.6875 C-81.90659385 109.70131693 -83.04562461 98.35478384 -82 85.0625 C-77.9641087 63.4972254 -58.83158986 48.51412844 -43.08984375 34.90234375 C-40.35629441 32.49579844 -37.67885994 30.02946804 -35 27.5625 C-31.09352439 23.96540034 -27.15107296 20.42106304 -23.1328125 16.94921875 C-21.41684209 15.43124492 -19.73111804 13.89297435 -18.0546875 12.33203125 C-17.53003906 11.84476562 -17.00539063 11.3575 -16.46484375 10.85546875 C-15.43541149 9.89685739 -14.4091491 8.93482592 -13.38671875 7.96875 C-4.93132024 0.10273584 -4.93132024 0.10273584 0 0 Z " fill="#017FC5" transform="translate(463,272.9375)"/>
<path d="M0 0 C3.54357925 1.30958363 5.31673551 2.22873829 7.875 5.0625 C8.59006844 8.61294236 8.41753969 12.10421968 8.29296875 15.7109375 C8.27308395 16.80393158 8.25319916 17.89692566 8.23271179 19.02304077 C8.14987925 22.70493196 8.01908504 26.38251078 7.875 30.0625 C7.80058685 32.01524841 7.80058685 32.01524841 7.72467041 34.00744629 C7.38964638 42.45153778 6.94073434 50.88697434 6.44067383 59.32275391 C6.22459741 62.98424834 6.03462796 66.64663042 5.85026264 70.30983925 C5.70033503 73.19703472 5.5316387 76.08292759 5.35811424 78.96879196 C5.24291507 80.95900729 5.14673032 82.9502955 5.05134583 84.94155884 C4.06717979 100.24689814 -0.54541312 115.0773186 -11.875 125.875 C-21.39849028 133.96853679 -31.54496673 137.63726142 -43.9765625 137.37109375 C-55.80308387 136.21191858 -66.43033763 130.03960609 -74.125 121.0625 C-82.38463925 109.88021917 -85.1586309 100.03128333 -84.125 86.0625 C-80.23225064 66.88015675 -65.15887196 53.94858494 -50.99780273 41.69238281 C-48.3250601 39.36631974 -45.72749503 36.9669791 -43.125 34.5625 C-39.19305133 30.94062833 -35.22283703 27.37289094 -31.18359375 23.87109375 C-28.6354335 21.6323875 -26.13089407 19.34839788 -23.625 17.0625 C-14.25110526 8.53018421 -14.25110526 8.53018421 -10.125 5.0625 C-9.51914062 4.54300781 -8.91328125 4.02351562 -8.2890625 3.48828125 C-5.44960296 1.22539319 -3.67585756 0.07351715 0 0 Z " fill="#007EC4" transform="translate(413.125,125.9375)"/>
<path d="M0 0 C6.76867853 4.00274013 11.9228124 9.99950248 14.8359375 17.3203125 C16.98575329 25.99545152 16.71213692 35.00853619 12.11328125 42.78125 C7.49776795 49.12897774 2.50967251 54.67776835 -5.5 56 C-13.3507466 56.7659265 -20.73504409 57.19154439 -27.50390625 52.6875 C-34.63688188 46.65727403 -40.05416367 40.2165268 -41.4375 30.8125 C-42.01548414 22.32769279 -38.6996156 14.61769258 -33.5 8 C-31.25 5.4375 -31.25 5.4375 -28.5 3 C-27.98179687 2.53078125 -27.46359375 2.0615625 -26.9296875 1.578125 C-19.37932127 -4.23990612 -8.43847783 -3.79344416 0 0 Z " fill="#FCFAF7" transform="translate(605.5,466)"/>
<path d="M0 0 C4.69658736 3.66807114 8.84944239 7.99039105 10 14 C10.72218511 22.24193756 11.22811762 28.25251968 6 35 C5.49339844 35.72445312 4.98679687 36.44890625 4.46484375 37.1953125 C-0.88144275 43.94995581 -7.1720693 46.41731871 -15.625 47.4375 C-24.70299065 46.26072343 -30.9218454 42.97772148 -37 36 C-40.42339638 30.71766258 -42.05686587 25.29715915 -41 19 C-38.89824735 9.17430637 -35.3377647 4.17396221 -27.06640625 -1.2734375 C-18.03343568 -6.75149707 -8.86437898 -5.35421431 0 0 Z " fill="#FCFAF7" transform="translate(698,386)"/>
<path d="M0 0 C5.37103754 3.0185231 9.15561525 7.65927736 12.3125 12.875 C13.73151125 19.49705249 13.68309005 25.6380751 10.27734375 31.61328125 C6.81328109 36.27384466 1.71754841 41.38713364 -4.125 42.5 C-11.48287279 42.57799865 -19.13240998 41.13228312 -24.7265625 36.04296875 C-30.12319208 29.81001938 -30.57584253 24.93463996 -30.43359375 16.8515625 C-29.8857183 10.90121903 -26.93919755 8.14872747 -22.75 4.3125 C-15.68586162 -1.38969645 -8.64556068 -3.76986658 0 0 Z " fill="#FBF9F6" transform="translate(716.125,505.5)"/>
<path d="M0 0 C0 0.99 0 1.98 0 3 C-3.7256448 6.45952732 -7.73053066 9.25534114 -12 12 C-10.56394807 8.61181498 -8.79533421 6.6813402 -6 4.3125 C-5.29875 3.71050781 -4.5975 3.10851562 -3.875 2.48828125 C-2 1 -2 1 0 0 Z " fill="#CD8421" transform="translate(684,264)"/>
<path d="M0 0 C0.66 0.66 1.32 1.32 2 2 C-3.94 7.445 -3.94 7.445 -10 13 C-10.66 12.67 -11.32 12.34 -12 12 C-8.04 8.04 -4.08 4.08 0 0 Z " fill="#CB7F17" transform="translate(390,502)"/>
<path d="M0 0 C1 2 1 2 0.22265625 4.3828125 C-0.16019531 5.28773438 -0.54304688 6.19265625 -0.9375 7.125 C-1.31777344 8.03507813 -1.69804687 8.94515625 -2.08984375 9.8828125 C-2.54037109 10.93082031 -2.54037109 10.93082031 -3 12 C-3.66 12 -4.32 12 -5 12 C-5 13.32 -5 14.64 -5 16 C-5.66 16 -6.32 16 -7 16 C-5.42334814 9.95616788 -3.80824293 4.99011142 0 0 Z " fill="#0A75C1" transform="translate(337,194)"/>
<path d="M0 0 C7.92 3.96 7.92 3.96 16 8 C13 9 13 9 10.625 8.07421875 C9.75875 7.61660156 8.8925 7.15898438 8 6.6875 C6.700625 6.01267578 6.700625 6.01267578 5.375 5.32421875 C3 4 3 4 0 2 C0 1.34 0 0.68 0 0 Z " fill="#0E7CC6" transform="translate(401,659)"/>
<path d="M0 0 C0.680625 0.268125 1.36125 0.53625 2.0625 0.8125 C2.0625 1.1425 2.0625 1.4725 2.0625 1.8125 C0.4846875 2.18375 0.4846875 2.18375 -1.125 2.5625 C-4.7508541 3.57950786 -7.13660772 5.26623429 -9.9375 7.8125 C-9.9375 4.8125 -9.9375 4.8125 -8.58203125 3.390625 C-3.58896374 -0.22908279 -3.58896374 -0.22908279 0 0 Z " fill="#177EC3" transform="translate(412.9375,126.1875)"/>
<path d="M0 0 C5.20540698 0.96396425 9.59913433 1.87680501 14 5 C13.67 5.66 13.34 6.32 13 7 C8.71 5.02 4.42 3.04 0 1 C0 0.67 0 0.34 0 0 Z " fill="#CD831F" transform="translate(701,620)"/>
<path d="M0 0 C-3.36736031 2.82858266 -6.87451958 4.4998253 -11 6 C-11.99 5.67 -12.98 5.34 -14 5 C-12.61217515 4.1533966 -11.21430603 3.32324661 -9.8125 2.5 C-9.03519531 2.0359375 -8.25789062 1.571875 -7.45703125 1.09375 C-4.75896614 -0.10729647 -2.9193018 -0.20741043 0 0 Z " fill="#087AC6" transform="translate(622,713)"/>
<path d="M0 0 C-2.3129482 2.3129482 -3.47904875 2.49580975 -6.625 3.125 C-7.44226563 3.29257812 -8.25953125 3.46015625 -9.1015625 3.6328125 C-10.04128906 3.81457031 -10.04128906 3.81457031 -11 4 C-11.33 3.34 -11.66 2.68 -12 2 C-10.56656 1.46809459 -9.12804633 0.94984742 -7.6875 0.4375 C-6.48673828 0.00244141 -6.48673828 0.00244141 -5.26171875 -0.44140625 C-3 -1 -3 -1 0 0 Z " fill="#1885CB" transform="translate(288,670)"/>
<path d="M0 0 C4.60428934 1.31551124 8.18320388 3.09196486 12 6 C12 6.66 12 7.32 12 8 C7.44328408 6.48109469 3.68276708 4.04597738 0 1 C0 0.67 0 0.34 0 0 Z " fill="#0972BF" transform="translate(344,251)"/>
<path d="M0 0 C-1.49097658 3.7952131 -3.75700849 5.61042731 -7 8 C-7.66 7.34 -8.32 6.68 -9 6 C-7.8803014 4.99406757 -6.7540588 3.9954151 -5.625 3 C-4.68527344 2.1646875 -4.68527344 2.1646875 -3.7265625 1.3125 C-2 0 -2 0 0 0 Z " fill="#0879C1" transform="translate(541,167)"/>
<path d="M0 0 C-3.57754493 2.2096601 -7.22194036 4.15490111 -11 6 C-9.90648447 2.82880497 -8.9873012 1.99216457 -6.0625 0.1875 C-3 -1 -3 -1 0 0 Z " fill="#CB821E" transform="translate(432,466)"/>
<path d="M0 0 C0.33 0.99 0.66 1.98 1 3 C0.34 3.66 -0.32 4.32 -1 5 C-1 4.34 -1 3.68 -1 3 C-2.1446875 3.5259375 -2.1446875 3.5259375 -3.3125 4.0625 C-6 5 -6 5 -9 4 C-6.03 2.68 -3.06 1.36 0 0 Z " fill="#097AC7" transform="translate(568,785)"/>
<path d="M0 0 C-3.45214853 2.30143236 -4.23479324 2.13833854 -8.1875 1.625 C-9.53908203 1.45871094 -9.53908203 1.45871094 -10.91796875 1.2890625 C-11.60503906 1.19367187 -12.29210937 1.09828125 -13 1 C-13 0.67 -13 0.34 -13 0 C-4.57142857 -1.28571429 -4.57142857 -1.28571429 0 0 Z " fill="#E6F0F4" transform="translate(684,650)"/>
<path d="M0 0 C0.33 0.66 0.66 1.32 1 2 C0.00390625 4.1640625 0.00390625 4.1640625 -1.4375 6.625 C-1.91058594 7.44226563 -2.38367188 8.25953125 -2.87109375 9.1015625 C-3.24363281 9.72804688 -3.61617187 10.35453125 -4 11 C-5 8 -5 8 -4.00390625 5.95703125 C-3.52824219 5.24933594 -3.05257812 4.54164063 -2.5625 3.8125 C-2.08941406 3.09707031 -1.61632812 2.38164062 -1.12890625 1.64453125 C-0.75636719 1.10183594 -0.38382813 0.55914062 0 0 Z " fill="#CB801A" transform="translate(546,386)"/>
<path d="M0 0 C0 0.66 0 1.32 0 2 C-1.96147874 3.38938077 -3.96166576 4.7260411 -6 6 C-6.66 5.67 -7.32 5.34 -8 5 C-3.375 0 -3.375 0 0 0 Z " fill="#127AC4" transform="translate(555,155)"/>
</svg>
